<svg width="292" height="293" viewBox="0 0 292 293" fill="none" xmlns="http://www.w3.org/2000/svg">
<path d="M112.43 247.873C89.2295 240.25 69.3464 224.897 56.1017 204.38C42.857 183.862 37.0525 159.421 39.6575 135.139C42.2626 110.857 53.1196 88.2041 70.4153 70.963C87.711 53.7218 110.398 42.9364 134.688 40.408C158.978 37.8796 183.401 43.7612 203.876 57.0707C224.352 70.3801 239.642 90.3116 247.192 113.536C254.742 136.761 254.096 161.873 245.361 184.679C236.626 207.485 220.331 226.603 199.197 238.841L112.965 288.628C111.732 289.341 110.313 289.668 108.892 289.566C107.472 289.464 106.114 288.937 104.996 288.055C103.871 287.174 103.038 285.976 102.604 284.615C102.17 283.254 102.155 281.795 102.563 280.426L112.43 247.873Z" fill="#F9B300"/>
<g filter="url(#filter0_d_2239_6437)">
<path d="M72.505 139L65.6868 139L73.3686 115.727L82.005 115.727L89.6868 139L82.8686 139L77.7777 122.136L77.5959 122.136L72.505 139ZM71.2322 129.818L84.0504 129.818L84.0504 134.545L71.2322 134.545L71.2322 129.818ZM98.2919 129.182L98.2919 139L92.0192 139L92.0192 121.545L97.9737 121.545L97.9737 124.864L98.1555 124.864C98.5343 123.758 99.201 122.89 100.156 122.261C101.118 121.633 102.239 121.318 103.519 121.318C104.754 121.318 105.826 121.602 106.735 122.17C107.652 122.731 108.36 123.504 108.86 124.489C109.368 125.473 109.618 126.598 109.61 127.864L109.61 139L103.337 139L103.337 129.182C103.345 128.318 103.125 127.64 102.678 127.148C102.239 126.655 101.625 126.409 100.837 126.409C100.322 126.409 99.8714 126.523 99.4851 126.75C99.1063 126.97 98.8146 127.288 98.6101 127.705C98.4055 128.114 98.2995 128.606 98.2919 129.182ZM128.661 127.227L122.888 127.227C122.858 126.871 122.733 126.564 122.513 126.307C122.294 126.049 122.01 125.852 121.661 125.716C121.32 125.572 120.942 125.5 120.525 125.5C119.987 125.5 119.525 125.598 119.138 125.795C118.752 125.992 118.563 126.273 118.57 126.636C118.563 126.894 118.673 127.133 118.9 127.352C119.135 127.572 119.585 127.742 120.252 127.864L123.798 128.5C125.585 128.826 126.915 129.375 127.786 130.148C128.665 130.913 129.108 131.939 129.116 133.227C129.108 134.47 128.737 135.549 128.002 136.466C127.275 137.375 126.279 138.08 125.013 138.58C123.756 139.072 122.32 139.318 120.707 139.318C118.04 139.318 115.953 138.773 114.445 137.682C112.945 136.591 112.108 135.152 111.934 133.364L118.161 133.364C118.245 133.917 118.517 134.345 118.979 134.648C119.449 134.943 120.04 135.091 120.752 135.091C121.328 135.091 121.801 134.992 122.173 134.795C122.551 134.598 122.745 134.318 122.752 133.955C122.745 133.621 122.578 133.356 122.252 133.159C121.934 132.962 121.434 132.803 120.752 132.682L117.661 132.136C115.881 131.826 114.548 131.235 113.661 130.364C112.775 129.492 112.335 128.371 112.343 127C112.335 125.788 112.654 124.761 113.298 123.92C113.949 123.072 114.877 122.428 116.082 121.989C117.294 121.542 118.729 121.318 120.388 121.318C122.911 121.318 124.9 121.841 126.354 122.886C127.817 123.932 128.585 125.379 128.661 127.227ZM139.928 139.318C138.034 139.318 136.413 138.943 135.065 138.193C133.716 137.436 132.682 136.383 131.962 135.034C131.243 133.678 130.883 132.106 130.883 130.318C130.883 128.53 131.243 126.962 131.962 125.614C132.682 124.258 133.716 123.205 135.065 122.455C136.413 121.697 138.034 121.318 139.928 121.318C141.822 121.318 143.443 121.697 144.792 122.455C146.14 123.205 147.174 124.258 147.894 125.614C148.614 126.962 148.974 128.53 148.974 130.318C148.974 132.106 148.614 133.678 147.894 135.034C147.174 136.383 146.14 137.436 144.792 138.193C143.443 138.943 141.822 139.318 139.928 139.318ZM139.974 134.682C140.504 134.682 140.962 134.504 141.349 134.148C141.735 133.792 142.034 133.284 142.246 132.625C142.459 131.966 142.565 131.182 142.565 130.273C142.565 129.356 142.459 128.572 142.246 127.92C142.034 127.261 141.735 126.754 141.349 126.398C140.962 126.042 140.504 125.864 139.974 125.864C139.413 125.864 138.932 126.042 138.531 126.398C138.129 126.754 137.822 127.261 137.61 127.92C137.398 128.572 137.292 129.356 137.292 130.273C137.292 131.182 137.398 131.966 137.61 132.625C137.822 133.284 138.129 133.792 138.531 134.148C138.932 134.504 139.413 134.682 139.974 134.682ZM136.337 119.5C135.565 119.5 134.909 119.242 134.371 118.727C133.834 118.212 133.565 117.591 133.565 116.864C133.565 116.136 133.834 115.515 134.371 115C134.909 114.485 135.565 114.227 136.337 114.227C137.087 114.227 137.727 114.485 138.258 115C138.796 115.515 139.065 116.136 139.065 116.864C139.065 117.591 138.796 118.212 138.258 118.727C137.727 119.242 137.087 119.5 136.337 119.5ZM143.565 119.5C142.792 119.5 142.137 119.242 141.599 118.727C141.061 118.212 140.792 117.591 140.792 116.864C140.792 116.136 141.061 115.515 141.599 115C142.137 114.485 142.792 114.227 143.565 114.227C144.315 114.227 144.955 114.485 145.485 115C146.023 115.515 146.292 116.136 146.292 116.864C146.292 117.591 146.023 118.212 145.485 118.727C144.955 119.242 144.315 119.5 143.565 119.5ZM157.156 134.864L157.201 127.409L158.019 127.409L162.246 121.545L169.292 121.545L162.201 130.682L160.428 130.682L157.156 134.864ZM151.519 139L151.519 115.727L157.792 115.727L157.792 139L151.519 139ZM162.292 139L158.292 132.091L162.383 127.636L169.474 139L162.292 139ZM185.709 139.318C183.816 139.318 182.194 138.943 180.846 138.193C179.497 137.436 178.463 136.383 177.744 135.034C177.024 133.678 176.664 132.106 176.664 130.318C176.664 128.53 177.024 126.962 177.744 125.614C178.463 124.258 179.497 123.205 180.846 122.455C182.194 121.697 183.816 121.318 185.709 121.318C187.603 121.318 189.225 121.697 190.573 122.455C191.922 123.205 192.956 124.258 193.675 125.614C194.395 126.962 194.755 128.53 194.755 130.318C194.755 132.106 194.395 133.678 193.675 135.034C192.956 136.383 191.922 137.436 190.573 138.193C189.225 138.943 187.603 139.318 185.709 139.318ZM185.755 134.682C186.285 134.682 186.744 134.504 187.13 134.148C187.516 133.792 187.816 133.284 188.028 132.625C188.24 131.966 188.346 131.182 188.346 130.273C188.346 129.356 188.24 128.572 188.028 127.92C187.816 127.261 187.516 126.754 187.13 126.398C186.744 126.042 186.285 125.864 185.755 125.864C185.194 125.864 184.713 126.042 184.312 126.398C183.91 126.754 183.603 127.261 183.391 127.92C183.179 128.572 183.073 129.356 183.073 130.273C183.073 131.182 183.179 131.966 183.391 132.625C183.603 133.284 183.91 133.792 184.312 134.148C184.713 134.504 185.194 134.682 185.755 134.682ZM197.3 139L197.3 121.545L203.255 121.545L203.255 124.864L203.437 124.864C203.8 123.773 204.422 122.909 205.3 122.273C206.179 121.636 207.225 121.318 208.437 121.318C209.664 121.318 210.721 121.644 211.607 122.295C212.494 122.939 213.028 123.795 213.209 124.864L213.391 124.864C213.687 123.795 214.316 122.939 215.278 122.295C216.24 121.644 217.369 121.318 218.664 121.318C220.338 121.318 221.694 121.856 222.732 122.932C223.778 124.008 224.3 125.439 224.3 127.227L224.3 139L218.028 139L218.028 128.818C218.028 128.053 217.834 127.455 217.448 127.023C217.062 126.583 216.543 126.364 215.891 126.364C215.247 126.364 214.736 126.583 214.357 127.023C213.986 127.455 213.8 128.053 213.8 128.818L213.8 139L207.8 139L207.8 128.818C207.8 128.053 207.607 127.455 207.221 127.023C206.834 126.583 206.316 126.364 205.664 126.364C205.232 126.364 204.861 126.462 204.55 126.659C204.24 126.856 203.997 127.14 203.823 127.511C203.656 127.875 203.573 128.311 203.573 128.818L203.573 139L197.3 139ZM74.4922 178.318C72.6285 178.318 71.0225 177.962 69.674 177.25C68.3331 176.53 67.299 175.5 66.5717 174.159C65.852 172.811 65.4922 171.197 65.4922 169.318C65.4922 167.515 65.8558 165.939 66.5831 164.591C67.3104 163.242 68.3369 162.193 69.6626 161.443C70.9884 160.693 72.5528 160.318 74.3558 160.318C75.674 160.318 76.8672 160.523 77.9354 160.932C79.0035 161.341 79.9164 161.936 80.674 162.716C81.4316 163.489 82.0149 164.428 82.424 165.534C82.8331 166.64 83.0376 167.886 83.0376 169.273L83.0376 170.727L67.4467 170.727L67.4467 167.273L77.2649 167.273C77.2573 166.773 77.1285 166.333 76.8785 165.955C76.6361 165.568 76.3066 165.269 75.8899 165.057C75.4808 164.837 75.0149 164.727 74.4922 164.727C73.9846 164.727 73.5187 164.837 73.0945 165.057C72.6702 165.269 72.3293 165.564 72.0717 165.943C71.8217 166.322 71.6891 166.765 71.674 167.273L71.674 171C71.674 171.561 71.7914 172.061 72.0263 172.5C72.2611 172.939 72.5982 173.284 73.0376 173.534C73.477 173.784 74.0073 173.909 74.6285 173.909C75.0604 173.909 75.4543 173.848 75.8104 173.727C76.174 173.606 76.4846 173.432 76.7422 173.205C76.9998 172.97 77.1891 172.689 77.3104 172.364L83.0376 172.364C82.8407 173.576 82.3748 174.629 81.6399 175.523C80.9051 176.409 79.9316 177.098 78.7195 177.591C77.5149 178.076 76.1058 178.318 74.4922 178.318ZM96.0064 160.545L96.0064 165.091L84.5064 165.091L84.5064 160.545L96.0064 160.545ZM86.7337 156.364L93.0064 156.364L93.0064 172.386C93.0064 172.629 93.048 172.833 93.1314 173C93.2147 173.159 93.3435 173.28 93.5177 173.364C93.692 173.439 93.9155 173.477 94.1882 173.477C94.3776 173.477 94.5973 173.455 94.8473 173.409C95.1049 173.364 95.2943 173.326 95.4155 173.295L96.3246 177.705C96.0443 177.788 95.6427 177.89 95.12 178.011C94.6049 178.133 93.9912 178.212 93.2791 178.25C91.8397 178.326 90.6314 178.178 89.6541 177.807C88.6768 177.428 87.942 176.833 87.4496 176.023C86.9571 175.212 86.7185 174.197 86.7337 172.977L86.7337 156.364ZM108.975 160.545L108.975 165.091L97.4751 165.091L97.4751 160.545L108.975 160.545ZM99.7024 156.364L105.975 156.364L105.975 172.386C105.975 172.629 106.017 172.833 106.1 173C106.183 173.159 106.312 173.28 106.486 173.364C106.661 173.439 106.884 173.477 107.157 173.477C107.346 173.477 107.566 173.455 107.816 173.409C108.074 173.364 108.263 173.326 108.384 173.295L109.293 177.705C109.013 177.788 108.611 177.89 108.089 178.011C107.574 178.133 106.96 178.212 106.248 178.25C104.808 178.326 103.6 178.178 102.623 177.807C101.646 177.428 100.911 176.833 100.418 176.023C99.9259 175.212 99.6873 174.197 99.7024 172.977L99.7024 156.364ZM123.546 173.864L123.592 166.409L124.41 166.409L128.637 160.545L135.683 160.545L128.592 169.682L126.819 169.682L123.546 173.864ZM117.91 178L117.91 154.727L124.183 154.727L124.183 178L117.91 178ZM128.683 178L124.683 171.091L128.773 166.636L135.864 178L128.683 178ZM145.006 178.318C143.112 178.318 141.491 177.943 140.143 177.193C138.794 176.436 137.76 175.383 137.04 174.034C136.321 172.678 135.961 171.106 135.961 169.318C135.961 167.53 136.321 165.962 137.04 164.614C137.76 163.258 138.794 162.205 140.143 161.455C141.491 160.697 143.112 160.318 145.006 160.318C146.9 160.318 148.522 160.697 149.87 161.455C151.218 162.205 152.253 163.258 152.972 164.614C153.692 165.962 154.052 167.53 154.052 169.318C154.052 171.106 153.692 172.678 152.972 174.034C152.253 175.383 151.218 176.436 149.87 177.193C148.522 177.943 146.9 178.318 145.006 178.318ZM145.052 173.682C145.582 173.682 146.04 173.504 146.427 173.148C146.813 172.792 147.112 172.284 147.325 171.625C147.537 170.966 147.643 170.182 147.643 169.273C147.643 168.356 147.537 167.572 147.325 166.92C147.112 166.261 146.813 165.754 146.427 165.398C146.04 165.042 145.582 164.864 145.052 164.864C144.491 164.864 144.01 165.042 143.609 165.398C143.207 165.754 142.9 166.261 142.688 166.92C142.476 167.572 142.37 168.356 142.37 169.273C142.37 170.182 142.476 170.966 142.688 171.625C142.9 172.284 143.207 172.792 143.609 173.148C144.01 173.504 144.491 173.682 145.052 173.682ZM162.87 168.182L162.87 178L156.597 178L156.597 160.545L162.552 160.545L162.552 163.864L162.734 163.864C163.112 162.758 163.779 161.89 164.734 161.261C165.696 160.633 166.817 160.318 168.097 160.318C169.332 160.318 170.404 160.602 171.313 161.17C172.23 161.731 172.938 162.504 173.438 163.489C173.946 164.473 174.196 165.598 174.188 166.864L174.188 178L167.915 178L167.915 168.182C167.923 167.318 167.703 166.64 167.256 166.148C166.817 165.655 166.203 165.409 165.415 165.409C164.9 165.409 164.45 165.523 164.063 165.75C163.684 165.97 163.393 166.288 163.188 166.705C162.984 167.114 162.878 167.606 162.87 168.182ZM187.694 160.545L187.694 165.091L176.194 165.091L176.194 160.545L187.694 160.545ZM178.421 156.364L184.694 156.364L184.694 172.386C184.694 172.629 184.736 172.833 184.819 173C184.902 173.159 185.031 173.28 185.205 173.364C185.379 173.439 185.603 173.477 185.876 173.477C186.065 173.477 186.285 173.455 186.535 173.409C186.792 173.364 186.982 173.326 187.103 173.295L188.012 177.705C187.732 177.788 187.33 177.89 186.808 178.011C186.292 178.133 185.679 178.212 184.967 178.25C183.527 178.326 182.319 178.178 181.342 177.807C180.364 177.428 179.629 176.833 179.137 176.023C178.645 175.212 178.406 174.197 178.421 172.977L178.421 156.364ZM198.475 178.318C196.581 178.318 194.96 177.943 193.611 177.193C192.263 176.436 191.229 175.383 190.509 174.034C189.79 172.678 189.43 171.106 189.43 169.318C189.43 167.53 189.79 165.962 190.509 164.614C191.229 163.258 192.263 162.205 193.611 161.455C194.96 160.697 196.581 160.318 198.475 160.318C200.369 160.318 201.99 160.697 203.339 161.455C204.687 162.205 205.721 163.258 206.441 164.614C207.161 165.962 207.521 167.53 207.521 169.318C207.521 171.106 207.161 172.678 206.441 174.034C205.721 175.383 204.687 176.436 203.339 177.193C201.99 177.943 200.369 178.318 198.475 178.318ZM198.521 173.682C199.051 173.682 199.509 173.504 199.896 173.148C200.282 172.792 200.581 172.284 200.793 171.625C201.005 170.966 201.111 170.182 201.111 169.273C201.111 168.356 201.005 167.572 200.793 166.92C200.581 166.261 200.282 165.754 199.896 165.398C199.509 165.042 199.051 164.864 198.521 164.864C197.96 164.864 197.479 165.042 197.077 165.398C196.676 165.754 196.369 166.261 196.157 166.92C195.945 167.572 195.839 168.356 195.839 169.273C195.839 170.182 195.945 170.966 196.157 171.625C196.369 172.284 196.676 172.792 197.077 173.148C197.479 173.504 197.96 173.682 198.521 173.682ZM223.714 154.727L223.123 170.727L217.941 170.727L217.35 154.727L223.714 154.727ZM220.532 178.364C219.653 178.364 218.899 178.057 218.271 177.443C217.649 176.822 217.343 176.068 217.35 175.182C217.343 174.318 217.649 173.58 218.271 172.966C218.899 172.352 219.653 172.045 220.532 172.045C221.365 172.045 222.1 172.352 222.736 172.966C223.38 173.58 223.706 174.318 223.714 175.182C223.706 175.773 223.551 176.311 223.248 176.795C222.952 177.273 222.566 177.655 222.089 177.943C221.611 178.223 221.093 178.364 220.532 178.364Z" fill="white"/>
</g>
<defs>
<filter id="filter0_d_2239_6437" x="61.4922" y="114.227" width="166.809" height="72.1367" filterUnits="userSpaceOnUse" color-interpolation-filters="sRGB">
<feFlood flood-opacity="0" result="BackgroundImageFix"/>
<feColorMatrix in="SourceAlpha" type="matrix" values="0 0 0 0 0 0 0 0 0 0 0 0 0 0 0 0 0 0 127 0" result="hardAlpha"/>
<feOffset dy="4"/>
<feGaussianBlur stdDeviation="2"/>
<feComposite in2="hardAlpha" operator="out"/>
<feColorMatrix type="matrix" values="0 0 0 0 0 0 0 0 0 0 0 0 0 0 0 0 0 0 0.25 0"/>
<feBlend mode="normal" in2="BackgroundImageFix" result="effect1_dropShadow_2239_6437"/>
<feBlend mode="normal" in="SourceGraphic" in2="effect1_dropShadow_2239_6437" result="shape"/>
</filter>
</defs>
</svg>
