<svg width="246" height="268" viewBox="0 0 246 268" fill="none" xmlns="http://www.w3.org/2000/svg">
<g filter="url(#filter0_d_2075_5850)">
<path d="M199.06 144.845L211.727 166.804C213.594 169.872 213.627 173.09 211.829 176.458C209.886 179.696 207.127 181.295 203.553 181.254L178.324 181.095L178.577 206.742C178.64 210.518 177.044 213.299 173.787 215.085C170.652 217.087 167.508 217.116 164.355 215.17L142.849 202.119L130.365 224.628C128.612 227.826 125.884 229.479 122.181 229.587C121.132 229.489 120.314 229.361 119.729 229.205C117.137 228.51 115.257 226.998 114.089 224.668L101.902 202.424L80.2256 215.594C77.1969 217.533 74.0412 217.604 70.7586 215.808C67.5826 213.948 66.0464 211.153 66.15 207.422L66.5933 181.687L41.4431 182.236C37.7399 182.344 35.0312 180.748 33.3169 177.446C31.3896 174.271 31.3975 171.064 33.3406 167.826L46.3826 145.742L24.4539 133.265C21.3386 131.513 19.7491 128.749 19.6854 124.974C19.812 121.157 21.4503 118.387 24.6005 116.664L46.5498 103.98L33.8832 82.0205C32.0165 78.9533 31.9826 75.7354 33.7814 72.3668C35.7245 69.1285 38.4829 67.5298 42.0566 67.5706L67.2858 67.7297L67.0333 42.0831C66.9697 38.3071 68.5662 35.526 71.8229 33.7399C74.9582 31.7379 78.1024 31.7095 81.2555 33.6545L102.761 46.7056L115.245 24.1966C117.021 20.9135 119.738 19.3036 123.395 19.3668C127.098 19.2589 129.807 20.8556 131.521 24.1571L143.674 46.5289L165.384 33.2307C168.497 31.3143 171.641 31.2858 174.817 33.1453C178.016 34.9192 179.564 37.6718 179.46 41.403L179.017 67.1382L204.167 66.5885C207.87 66.4806 210.579 68.0774 212.293 71.3788C214.22 74.554 214.213 77.7607 212.269 80.999L199.228 103.083L221.156 115.56C224.272 117.312 225.861 120.075 225.925 123.851C225.798 127.668 224.16 130.438 221.01 132.161L199.06 144.845Z" fill="#37474F"/>
</g>
<g filter="url(#filter1_d_2075_5850)">
<path d="M80.4378 72.2032L75.4984 70.8797L85.581 55.511L91.8376 57.1875L92.8851 75.5384L87.9457 74.2149L87.5311 61.0099L87.3994 60.9746L80.4378 72.2032ZM81.2981 65.3044L90.5842 67.7926L89.6666 71.2172L80.3805 68.729L81.2981 65.3044ZM101.025 70.096L99.119 77.2088L94.5748 75.9911L97.963 63.3463L102.277 64.5022L101.633 66.906L101.764 66.9413C102.253 66.2135 102.905 65.7146 103.718 65.4443C104.537 65.1756 105.411 65.1654 106.338 65.414C107.233 65.6537 107.954 66.0676 108.502 66.6556C109.058 67.2397 109.421 67.937 109.592 68.7475C109.768 69.5595 109.731 70.4231 109.48 71.3381L107.318 79.4058L102.774 78.1882L104.68 71.0754C104.853 70.4513 104.826 69.9174 104.597 69.4739C104.375 69.0319 103.978 68.7344 103.407 68.5815C103.034 68.4815 102.685 68.4763 102.361 68.5659C102.044 68.6516 101.771 68.8255 101.542 69.0876C101.315 69.3443 101.142 69.6804 101.025 70.096ZM123.405 74.5752L119.223 73.4546C119.27 73.1908 119.239 72.9443 119.13 72.715C119.021 72.4858 118.853 72.2879 118.627 72.1215C118.408 71.9511 118.148 71.8254 117.846 71.7445C117.456 71.6401 117.103 71.6217 116.784 71.6894C116.466 71.7571 116.275 71.9234 116.21 72.1883C116.154 72.3735 116.187 72.5677 116.309 72.7709C116.437 72.9757 116.73 73.1867 117.19 73.4039L119.635 74.5531C120.867 75.1362 121.723 75.7921 122.204 76.5211C122.692 77.246 122.814 78.0756 122.57 79.0101C122.323 79.9087 121.845 80.6187 121.134 81.1401C120.431 81.6576 119.573 81.9746 118.559 82.0912C117.552 82.2038 116.464 82.1035 115.296 81.7903C113.364 81.2727 111.958 80.4724 111.077 79.3894C110.202 78.308 109.875 77.1027 110.096 75.7737L114.607 76.9825C114.56 77.3993 114.675 77.7623 114.951 78.0715C115.234 78.3767 115.633 78.5985 116.149 78.7367C116.566 78.8485 116.928 78.869 117.235 78.7984C117.548 78.7292 117.742 78.5637 117.818 78.3017C117.878 78.0587 117.808 77.8343 117.611 77.6284C117.418 77.4239 117.087 77.2116 116.617 76.9915L114.483 75.9963C113.254 75.4257 112.403 74.7388 111.93 73.9356C111.457 73.1324 111.356 72.2349 111.628 71.243C111.857 70.3634 112.287 69.6815 112.917 69.1973C113.554 68.7091 114.351 68.4227 115.309 68.3382C116.274 68.2497 117.357 68.3665 118.559 68.6885C120.387 69.1782 121.726 69.943 122.577 70.9827C123.433 72.0239 123.709 73.2214 123.405 74.5752ZM129.22 85.5215C127.848 85.1538 126.747 84.5675 125.915 83.7624C125.086 82.9518 124.541 81.9882 124.281 80.8716C124.023 79.7495 124.068 78.5409 124.415 77.2456C124.762 75.9504 125.327 74.8842 126.11 74.047C126.894 73.2043 127.848 72.6422 128.971 72.3606C130.094 72.0736 131.342 72.1139 132.715 72.4815C134.087 72.8491 135.188 73.4382 136.017 74.2488C136.849 75.0539 137.393 76.0175 137.652 77.1396C137.911 78.2562 137.867 79.4621 137.52 80.7573C137.173 82.0526 136.608 83.1215 135.823 83.9642C135.04 84.8014 134.086 85.3635 132.962 85.6506C131.84 85.9322 130.593 85.8891 129.22 85.5215ZM130.153 82.1715C130.538 82.2745 130.904 82.2345 131.253 82.0515C131.602 81.8686 131.918 81.5589 132.199 81.1226C132.481 80.6863 132.71 80.1389 132.886 79.4803C133.064 78.8162 133.14 78.2276 133.112 77.7145C133.087 77.1958 132.968 76.77 132.758 76.4371C132.547 76.1041 132.249 75.8862 131.865 75.7832C131.459 75.6744 131.076 75.71 130.716 75.89C130.356 76.07 130.035 76.3782 129.754 76.8145C129.473 77.2453 129.244 77.7927 129.066 78.4568C128.89 79.1154 128.815 79.704 128.84 80.2227C128.866 80.7413 128.99 81.1686 129.212 81.5045C129.433 81.8404 129.747 82.0627 130.153 82.1715ZM130.466 70.4673C129.906 70.3173 129.482 70.0035 129.192 69.5259C128.902 69.0483 128.828 68.546 128.969 68.0191C129.11 67.4923 129.426 67.0945 129.915 66.8257C130.405 66.5569 130.93 66.4975 131.49 66.6475C132.033 66.7931 132.447 67.1039 132.731 67.5801C133.021 68.0577 133.095 68.5599 132.954 69.0868C132.812 69.6136 132.497 70.0115 132.007 70.2803C131.523 70.5505 131.009 70.6129 130.466 70.4673ZM135.702 71.8702C135.142 71.7202 134.717 71.4064 134.428 70.9288C134.138 70.4512 134.064 69.9489 134.205 69.4221C134.346 68.8952 134.661 68.4974 135.151 68.2286C135.641 67.9598 136.166 67.9004 136.725 68.0504C137.269 68.196 137.682 68.5068 137.967 68.983C138.256 69.4606 138.331 69.9628 138.189 70.4897C138.048 71.0166 137.733 71.4144 137.243 71.6832C136.759 71.9534 136.245 72.0158 135.702 71.8702ZM142.565 85.6385L144.045 80.2469L144.638 80.4057L148.839 76.9784L153.943 78.346L147.032 83.5884L145.748 83.2443L142.565 85.6385ZM137.679 87.5409L142.197 70.6812L146.741 71.8988L142.223 88.7586L137.679 87.5409ZM145.483 89.6321L143.927 83.8504L147.755 81.4174L150.686 91.0262L145.483 89.6321ZM162.386 94.4083C161.014 94.0406 159.913 93.4543 159.081 92.6492C158.252 91.8386 157.707 90.875 157.447 89.7584C157.189 88.6363 157.233 87.4277 157.581 86.1324C157.928 84.8372 158.493 83.771 159.276 82.9338C160.06 82.0911 161.014 81.529 162.136 81.2474C163.26 80.9604 164.508 81.0006 165.881 81.3683C167.253 81.7359 168.354 82.325 169.183 83.1356C170.015 83.9407 170.559 84.9043 170.818 86.0264C171.077 87.143 171.033 88.3489 170.686 89.6441C170.339 90.9394 169.774 92.0083 168.989 92.851C168.206 93.6882 167.252 94.2503 166.128 94.5374C165.006 94.819 163.759 94.7759 162.386 94.4083ZM163.319 91.0583C163.704 91.1613 164.07 91.1213 164.419 90.9383C164.768 90.7554 165.083 90.4457 165.365 90.0094C165.647 89.5731 165.876 89.0257 166.052 88.3671C166.23 87.703 166.306 87.1144 166.278 86.6013C166.253 86.0826 166.134 85.6568 165.924 85.3239C165.713 84.9909 165.415 84.773 165.031 84.67C164.625 84.5612 164.242 84.5968 163.882 84.7768C163.522 84.9568 163.201 85.265 162.92 85.7013C162.639 86.1321 162.41 86.6795 162.232 87.3436C162.056 88.0022 161.981 88.5908 162.006 89.1095C162.032 89.6281 162.156 90.0554 162.378 90.3913C162.599 90.7271 162.913 90.9495 163.319 91.0583ZM170.845 96.4277L174.233 83.7829L178.547 84.9388L177.903 87.3426L178.035 87.3779C178.51 86.6582 179.128 86.1531 179.888 85.8627C180.648 85.5723 181.467 85.5447 182.345 85.78C183.234 86.0182 183.937 86.4593 184.452 87.1034C184.969 87.7419 185.19 88.4658 185.115 89.2749L185.246 89.3102C185.668 88.5937 186.289 88.0956 187.111 87.8159C187.935 87.5306 188.816 87.5138 189.754 87.7652C190.967 88.0902 191.845 88.7431 192.388 89.7239C192.937 90.7062 193.037 91.8449 192.69 93.1401L190.405 101.669L185.861 100.451L187.837 93.075C187.986 92.5207 187.962 92.0497 187.766 91.6618C187.571 91.2685 187.238 91.0086 186.766 90.8822C186.3 90.7572 185.887 90.8171 185.527 91.0618C185.174 91.3026 184.923 91.7002 184.775 92.2545L182.799 99.6306L178.452 98.4659L180.428 91.0898C180.577 90.5355 180.553 90.0644 180.357 89.6766C180.162 89.2833 179.829 89.0234 179.357 88.8969C179.044 88.8131 178.756 88.8124 178.493 88.8948C178.23 88.9772 177.999 89.1359 177.801 89.371C177.609 89.6021 177.464 89.9015 177.366 90.2692L175.389 97.6454L170.845 96.4277ZM74.3099 100.831C72.9598 100.47 71.8654 99.8998 71.0268 99.1221C70.1951 98.3405 69.6459 97.3933 69.3793 96.2808C69.1197 95.1642 69.1723 93.9253 69.537 92.5642C69.887 91.258 70.4563 90.1871 71.2449 89.3513C72.0335 88.5156 72.9809 87.9548 74.0869 87.6688C75.1929 87.3828 76.399 87.4148 77.7052 87.7648C78.6602 88.0207 79.4848 88.4005 80.1793 88.9042C80.8737 89.4079 81.4196 90.0159 81.8169 90.7283C82.2158 91.4351 82.456 92.2289 82.5377 93.1096C82.6193 93.9903 82.5256 94.9328 82.2565 95.9371L81.9741 96.9909L70.6794 93.9644L71.35 91.4618L78.4627 93.3677C78.5543 93.004 78.5463 92.6607 78.4387 92.3377C78.3381 92.0108 78.1574 91.73 77.8967 91.4955C77.643 91.2569 77.3268 91.0869 76.9481 90.9854C76.5804 90.8869 76.2216 90.876 75.8716 90.9528C75.5231 91.0241 75.2187 91.172 74.9586 91.3964C74.704 91.6223 74.5219 91.9176 74.4124 92.2824L73.6889 94.9826C73.5801 95.3887 73.5681 95.7737 73.6529 96.1376C73.7378 96.5015 73.9151 96.8167 74.1849 97.0831C74.4546 97.3495 74.8146 97.543 75.2646 97.6636C75.5774 97.7474 75.8746 97.78 76.156 97.7613C76.443 97.7441 76.7018 97.6781 76.9326 97.5635C77.1647 97.4433 77.3564 97.277 77.5074 97.0646L81.6565 98.1763C81.2785 99.0162 80.7366 99.6886 80.0307 100.194C79.3263 100.693 78.4872 101.004 77.5135 101.125C76.5468 101.242 75.4789 101.144 74.3099 100.831ZM93.3457 92.1321L92.4634 95.4251L84.1323 93.1927L85.0146 89.8998L93.3457 92.1321ZM87.4399 87.3027L91.9841 88.5203L88.8739 100.128C88.8268 100.303 88.8173 100.46 88.8453 100.597C88.8748 100.728 88.9446 100.841 89.0546 100.935C89.1662 101.024 89.3207 101.095 89.5183 101.148C89.6555 101.184 89.8191 101.211 90.009 101.226C90.2044 101.243 90.349 101.253 90.4427 101.254L90.2454 104.625C90.0262 104.631 89.7154 104.627 89.3132 104.613C88.9165 104.601 88.4565 104.539 87.9333 104.429C86.8758 104.204 86.0291 103.863 85.3932 103.404C84.7587 102.94 84.3418 102.366 84.1424 101.684C83.943 101.001 83.9672 100.219 84.2149 99.3383L87.4399 87.3027ZM102.741 94.6495L101.859 97.9425L93.5274 95.7102L94.4097 92.4172L102.741 94.6495ZM96.835 89.8201L101.379 91.0377L98.269 102.645C98.222 102.821 98.2125 102.977 98.2405 103.114C98.27 103.246 98.3397 103.358 98.4498 103.453C98.5613 103.541 98.7159 103.612 98.9134 103.665C99.0506 103.702 99.2142 103.728 99.4041 103.744C99.5996 103.761 99.7441 103.77 99.8378 103.772L99.6405 107.142C99.4213 107.148 99.1106 107.144 98.7084 107.131C98.3116 107.118 97.8516 107.057 97.3284 106.946C96.2709 106.722 95.4242 106.38 94.7883 105.921C94.1539 105.457 93.7369 104.884 93.5376 104.201C93.3382 103.518 93.3623 102.736 93.6101 101.856L96.835 89.8201ZM110.711 107.126L112.191 101.735L112.784 101.894L116.985 98.4662L122.089 99.8338L115.178 105.076L113.894 104.732L110.711 107.126ZM105.825 109.029L110.343 92.1689L114.887 93.3866L110.37 110.246L105.825 109.029ZM113.63 111.12L112.073 105.338L115.901 102.905L118.832 112.514L113.63 111.12ZM125.394 114.519C124.021 114.151 122.92 113.565 122.088 112.76C121.259 111.949 120.714 110.986 120.454 109.869C120.196 108.747 120.241 107.538 120.588 106.243C120.935 104.948 121.5 103.882 122.283 103.045C123.068 102.202 124.021 101.64 125.144 101.358C126.268 101.071 127.516 101.111 128.888 101.479C130.26 101.847 131.361 102.436 132.19 103.246C133.022 104.052 133.567 105.015 133.825 106.137C134.084 107.254 134.041 108.46 133.694 109.755C133.346 111.05 132.781 112.119 131.996 112.962C131.213 113.799 130.259 114.361 129.135 114.648C128.013 114.93 126.766 114.887 125.394 114.519ZM126.326 111.169C126.711 111.272 127.077 111.232 127.426 111.049C127.775 110.866 128.091 110.557 128.372 110.12C128.654 109.684 128.883 109.136 129.059 108.478C129.237 107.814 129.313 107.225 129.285 106.712C129.26 106.193 129.141 105.768 128.931 105.435C128.72 105.102 128.422 104.884 128.038 104.781C127.632 104.672 127.249 104.708 126.889 104.888C126.529 105.068 126.208 105.376 125.927 105.812C125.646 106.243 125.417 106.79 125.24 107.454C125.063 108.113 124.988 108.702 125.013 109.22C125.039 109.739 125.163 110.166 125.385 110.502C125.606 110.838 125.92 111.06 126.326 111.169ZM140.302 110.643L138.397 117.756L133.852 116.539L137.24 103.894L141.554 105.05L140.91 107.453L141.042 107.489C141.531 106.761 142.182 106.262 142.996 105.992C143.815 105.723 144.688 105.713 145.616 105.961C146.51 106.201 147.232 106.615 147.78 107.203C148.335 107.787 148.698 108.484 148.869 109.295C149.046 110.107 149.009 110.97 148.758 111.886L146.596 119.953L142.052 118.736L143.958 111.623C144.131 110.999 144.103 110.465 143.875 110.021C143.652 109.579 143.255 109.282 142.685 109.129C142.311 109.029 141.963 109.024 141.639 109.113C141.322 109.199 141.049 109.373 140.82 109.635C140.592 109.892 140.42 110.228 140.302 110.643ZM159.768 109.93L158.886 113.223L150.555 110.991L151.437 107.698L159.768 109.93ZM153.862 105.101L158.407 106.318L155.296 117.926C155.249 118.101 155.24 118.258 155.268 118.395C155.297 118.526 155.367 118.639 155.477 118.733C155.589 118.822 155.743 118.892 155.941 118.945C156.078 118.982 156.242 119.008 156.431 119.024C156.627 119.041 156.771 119.05 156.865 119.052L156.668 122.423C156.449 122.429 156.138 122.425 155.736 122.411C155.339 122.399 154.879 122.337 154.356 122.227C153.298 122.002 152.452 121.66 151.816 121.202C151.181 120.738 150.764 120.164 150.565 119.481C150.366 118.799 150.39 118.017 150.637 117.136L153.862 105.101ZM164.129 124.898C162.757 124.53 161.655 123.944 160.824 123.139C159.994 122.328 159.449 121.365 159.189 120.248C158.931 119.126 158.976 117.917 159.323 116.622C159.67 115.327 160.235 114.261 161.018 113.424C161.803 112.581 162.756 112.019 163.879 111.737C165.003 111.45 166.251 111.49 167.623 111.858C168.995 112.226 170.096 112.815 170.926 113.625C171.757 114.431 172.302 115.394 172.56 116.516C172.819 117.633 172.776 118.839 172.429 120.134C172.082 121.429 171.516 122.498 170.731 123.341C169.948 124.178 168.994 124.74 167.87 125.027C166.748 125.309 165.501 125.266 164.129 124.898ZM165.062 121.548C165.446 121.651 165.812 121.611 166.161 121.428C166.51 121.245 166.826 120.936 167.107 120.499C167.389 120.063 167.618 119.516 167.794 118.857C167.972 118.193 168.048 117.604 168.021 117.091C167.995 116.572 167.877 116.147 167.666 115.814C167.455 115.481 167.158 115.263 166.773 115.16C166.367 115.051 165.984 115.087 165.624 115.267C165.264 115.447 164.943 115.755 164.662 116.191C164.382 116.622 164.153 117.169 163.975 117.833C163.798 118.492 163.723 119.081 163.749 119.599C163.774 120.118 163.898 120.545 164.12 120.881C164.342 121.217 164.655 121.439 165.062 121.548ZM186.992 112.707L183.458 124.183L179.704 123.178L182.382 111.472L186.992 112.707ZM180.099 129.213C179.462 129.042 178.976 128.673 178.639 128.107C178.31 127.536 178.234 126.931 178.411 126.29C178.574 125.663 178.939 125.187 179.508 124.863C180.083 124.541 180.689 124.465 181.325 124.635C181.929 124.797 182.402 125.162 182.744 125.73C183.091 126.3 183.184 126.898 183.021 127.525C182.901 127.952 182.684 128.311 182.371 128.604C182.064 128.892 181.71 129.094 181.308 129.21C180.908 129.321 180.505 129.321 180.099 129.213Z" fill="white"/>
</g>
<g filter="url(#filter2_d_2075_5850)">
<path d="M52.9407 121.158L56.1406 109.216L64.5376 111.466L63.8376 114.078L58.6828 112.697L58.1328 114.749L62.7745 115.993L62.0745 118.605L57.4328 117.362L56.1829 122.027L52.9407 121.158ZM64.8426 124.497C64.2712 124.344 63.7908 124.115 63.4015 123.811C63.0172 123.504 62.7521 123.124 62.6065 122.673C62.4608 122.221 62.4676 121.698 62.627 121.103C62.7583 120.614 62.9538 120.218 63.2137 119.917C63.4746 119.612 63.7844 119.389 64.1431 119.247C64.5018 119.106 64.8951 119.03 65.3228 119.02C65.7545 119.01 66.2063 119.05 66.6783 119.139C67.1902 119.235 67.6051 119.296 67.9229 119.322C68.2456 119.346 68.4885 119.326 68.6517 119.262C68.8159 119.193 68.9209 119.073 68.9667 118.902L68.973 118.879C69.0355 118.646 68.994 118.443 68.8485 118.271C68.703 118.098 68.4903 117.975 68.2104 117.9C67.9033 117.817 67.6343 117.818 67.4035 117.902C67.1776 117.983 67.0082 118.157 66.8954 118.422L63.9331 117.628C64.1178 117.095 64.4252 116.639 64.8552 116.263C65.2902 115.884 65.842 115.636 66.5108 115.519C67.1805 115.399 67.9606 115.458 68.8508 115.696C69.4922 115.868 70.0473 116.098 70.5159 116.386C70.9856 116.67 71.3633 116.994 71.6491 117.358C71.9359 117.719 72.1247 118.103 72.2154 118.51C72.3111 118.915 72.3033 119.325 72.1918 119.741L70.5481 125.876L67.5392 125.07L67.8767 123.81L67.8067 123.791C67.5383 124.078 67.2482 124.29 66.9364 124.427C66.6285 124.565 66.2988 124.637 65.9472 124.643C65.5996 124.65 65.2314 124.601 64.8426 124.497ZM66.436 122.749C66.6809 122.815 66.9238 122.826 67.1647 122.782C67.4095 122.739 67.6254 122.641 67.8125 122.487C67.9996 122.333 68.1296 122.12 68.2026 121.847L68.4026 121.101C68.3077 121.113 68.2074 121.122 68.1019 121.127C68.0003 121.133 67.8914 121.135 67.7753 121.133C67.663 121.132 67.5435 121.127 67.4167 121.118C67.2939 121.11 67.1657 121.099 67.0322 121.084C66.773 121.056 66.5517 121.065 66.3683 121.112C66.1899 121.156 66.0447 121.232 65.9325 121.339C65.8253 121.444 65.7509 121.574 65.7092 121.729C65.6426 121.978 65.679 122.192 65.8185 122.371C65.9581 122.55 66.1639 122.676 66.436 122.749ZM69.1628 114.905C68.813 114.811 68.5146 114.642 68.2679 114.396C68.026 114.148 67.8551 113.861 67.7552 113.534C67.6602 113.204 67.6585 112.868 67.7502 112.526C67.8418 112.184 68.0107 111.896 68.2568 111.662C68.5077 111.425 68.7994 111.262 69.1319 111.172C69.4693 111.079 69.8129 111.079 70.1628 111.173C70.5127 111.267 70.8085 111.438 71.0504 111.686C71.2972 111.931 71.468 112.218 71.5631 112.548C71.663 112.875 71.6671 113.209 71.5755 113.551C71.4838 113.893 71.3125 114.183 71.0615 114.42C70.8155 114.654 70.5237 114.817 70.1863 114.91C69.8539 115 69.5127 114.999 69.1628 114.905ZM69.4691 113.762C69.6839 113.815 69.884 113.792 70.0692 113.691C70.2583 113.592 70.3794 113.443 70.4325 113.245C70.4857 113.047 70.4557 112.855 70.3426 112.671C70.2334 112.488 70.0714 112.369 69.8566 112.316C69.6417 112.262 69.4397 112.285 69.2506 112.385C69.0654 112.485 68.9462 112.634 68.8931 112.833C68.84 113.031 68.868 113.222 68.9772 113.405C69.0903 113.59 69.2542 113.708 69.4691 113.762ZM79.6054 128.478C78.6491 128.221 77.8739 127.818 77.2799 127.267C76.6907 126.713 76.3018 126.043 76.1129 125.254C75.929 124.464 75.9662 123.586 76.2246 122.622C76.4725 121.697 76.8757 120.938 77.4344 120.346C77.993 119.754 78.664 119.357 79.4474 119.154C80.2309 118.952 81.0852 118.974 82.0104 119.222C82.6868 119.404 83.271 119.673 83.7629 120.029C84.2548 120.386 84.6414 120.817 84.9229 121.321C85.2054 121.822 85.3756 122.384 85.4334 123.008C85.4913 123.632 85.4249 124.3 85.2342 125.011L85.0342 125.757L77.0338 123.614L77.5088 121.841L82.547 123.191C82.6118 122.933 82.6062 122.69 82.53 122.461C82.4587 122.23 82.3307 122.031 82.1461 121.865C81.9664 121.696 81.7424 121.575 81.4741 121.504C81.2137 121.434 80.9595 121.426 80.7116 121.48C80.4647 121.531 80.2492 121.636 80.0649 121.795C79.8845 121.955 79.7556 122.164 79.678 122.422L79.1655 124.335C79.0884 124.623 79.0799 124.895 79.14 125.153C79.2001 125.411 79.3257 125.634 79.5168 125.823C79.7079 126.011 79.9629 126.149 80.2816 126.234C80.5032 126.293 80.7137 126.316 80.9131 126.303C81.1164 126.291 81.2997 126.244 81.4631 126.163C81.6276 126.078 81.7633 125.96 81.8703 125.81L84.8092 126.597C84.5415 127.192 84.1576 127.668 83.6576 128.026C83.1587 128.38 82.5643 128.6 81.8746 128.686C81.1899 128.769 80.4335 128.7 79.6054 128.478ZM87.806 130.65C87.2346 130.497 86.7542 130.268 86.3649 129.964C85.9805 129.657 85.7155 129.277 85.5698 128.826C85.4242 128.374 85.431 127.851 85.5904 127.256C85.7216 126.767 85.9172 126.371 86.1771 126.07C86.438 125.765 86.7478 125.542 87.1065 125.4C87.4652 125.259 87.8584 125.183 88.2862 125.173C88.7179 125.163 89.1697 125.203 89.6417 125.292C90.1536 125.388 90.5684 125.449 90.8862 125.476C91.209 125.499 91.4519 125.479 91.6151 125.415C91.7793 125.346 91.8843 125.226 91.9301 125.055L91.9363 125.032C91.9988 124.799 91.9574 124.596 91.8119 124.424C91.6664 124.251 91.4537 124.128 91.1738 124.053C90.8667 123.97 90.5977 123.971 90.3669 124.055C90.141 124.136 89.9716 124.31 89.8588 124.575L86.8965 123.781C87.0812 123.248 87.3886 122.793 87.8186 122.416C88.2535 122.037 88.8054 121.789 89.4741 121.672C90.1439 121.552 90.9239 121.611 91.8142 121.849C92.4556 122.021 93.0106 122.251 93.4793 122.539C93.9489 122.823 94.3267 123.147 94.6125 123.511C94.8993 123.872 95.0881 124.256 95.1788 124.663C95.2745 125.068 95.2666 125.478 95.1552 125.894L93.5115 132.029L90.5026 131.223L90.84 129.963L90.7701 129.944C90.5017 130.231 90.2116 130.443 89.8998 130.58C89.5919 130.718 89.2622 130.79 88.9106 130.796C88.563 130.803 88.1948 130.754 87.806 130.65ZM89.3994 128.902C89.6443 128.968 89.8872 128.979 90.1281 128.935C90.3729 128.892 90.5888 128.794 90.7759 128.64C90.963 128.486 91.093 128.273 91.1659 128L91.3659 127.254C91.271 127.266 91.1708 127.275 91.0653 127.28C90.9637 127.286 90.8548 127.288 90.7386 127.286C90.6264 127.285 90.5069 127.28 90.3801 127.271C90.2572 127.263 90.1291 127.252 89.9956 127.237C89.7363 127.209 89.5151 127.218 89.3317 127.265C89.1533 127.309 89.008 127.385 88.8959 127.492C88.7887 127.597 88.7143 127.727 88.6726 127.882C88.606 128.131 88.6424 128.345 88.7819 128.524C88.9214 128.703 89.1272 128.829 89.3994 128.902ZM95.0495 132.441L97.4494 123.484L100.575 124.322L100.119 126.024L100.212 126.049C100.544 125.463 100.926 125.072 101.358 124.875C101.794 124.679 102.251 124.646 102.729 124.774C102.869 124.811 103.004 124.86 103.133 124.92C103.268 124.977 103.394 125.042 103.512 125.115L102.776 127.861C102.632 127.764 102.446 127.671 102.22 127.581C101.994 127.492 101.798 127.424 101.631 127.379C101.316 127.295 101.013 127.291 100.721 127.367C100.435 127.44 100.186 127.586 99.9731 127.804C99.7615 128.018 99.6099 128.296 99.5183 128.638L98.2683 133.303L95.0495 132.441ZM108.588 123.269L105.388 135.211L102.169 134.349L105.369 122.406L108.588 123.269ZM108.088 139.534C107.718 139.435 107.374 139.312 107.056 139.164C106.736 139.02 106.463 138.866 106.236 138.701L107.548 136.602C107.788 136.767 108.012 136.891 108.223 136.977C108.437 137.064 108.63 137.099 108.801 137.082C108.976 137.066 109.12 136.986 109.234 136.842L109.348 136.697L108.705 126.5L112.064 127.4L111.848 133.992L111.941 134.017L115.073 128.206L118.455 129.113L112.59 137.941C112.294 138.391 111.938 138.77 111.522 139.08C111.108 139.394 110.62 139.599 110.057 139.693C109.494 139.788 108.838 139.735 108.088 139.534ZM124.448 133.918L123.798 136.344L118.2 134.844L118.85 132.418L124.448 133.918ZM127.222 141.212C126.651 141.058 126.17 140.83 125.781 140.525C125.397 140.218 125.132 139.839 124.986 139.387C124.84 138.936 124.847 138.413 125.007 137.818C125.138 137.328 125.333 136.933 125.593 136.631C125.854 136.326 126.164 136.103 126.523 135.962C126.881 135.82 127.275 135.744 127.702 135.734C128.134 135.725 128.586 135.765 129.058 135.854C129.57 135.949 129.985 136.01 130.302 136.037C130.625 136.061 130.868 136.041 131.031 135.976C131.195 135.908 131.3 135.788 131.346 135.617L131.353 135.593C131.415 135.36 131.374 135.157 131.228 134.985C131.083 134.813 130.87 134.689 130.59 134.614C130.283 134.532 130.014 134.533 129.783 134.617C129.557 134.698 129.388 134.871 129.275 135.137L126.313 134.343C126.497 133.809 126.805 133.354 127.235 132.978C127.67 132.598 128.222 132.35 128.89 132.234C129.56 132.113 130.34 132.172 131.23 132.411C131.872 132.583 132.427 132.813 132.895 133.101C133.365 133.385 133.743 133.709 134.029 134.073C134.315 134.433 134.504 134.817 134.595 135.225C134.691 135.63 134.683 136.04 134.571 136.456L132.928 142.59L129.919 141.784L130.256 140.525L130.186 140.506C129.918 140.792 129.628 141.004 129.316 141.141C129.008 141.28 128.678 141.352 128.327 141.358C127.979 141.364 127.611 141.316 127.222 141.212ZM128.816 139.464C129.06 139.529 129.303 139.54 129.544 139.496C129.789 139.454 130.005 139.355 130.192 139.201C130.379 139.047 130.509 138.834 130.582 138.562L130.782 137.816C130.687 137.828 130.587 137.836 130.481 137.841C130.38 137.847 130.271 137.849 130.155 137.847C130.043 137.847 129.923 137.842 129.796 137.833C129.673 137.825 129.545 137.813 129.412 137.798C129.153 137.771 128.931 137.78 128.748 137.827C128.569 137.871 128.424 137.946 128.312 138.054C128.205 138.158 128.13 138.288 128.089 138.444C128.022 138.693 128.059 138.907 128.198 139.086C128.338 139.265 128.543 139.391 128.816 139.464ZM138.737 144.322C137.765 144.062 136.985 143.646 136.396 143.076C135.808 142.502 135.422 141.819 135.238 141.028C135.056 140.233 135.087 139.377 135.333 138.46C135.579 137.542 135.979 136.787 136.534 136.194C137.089 135.597 137.765 135.199 138.56 135C139.356 134.796 140.24 134.825 141.212 135.085C142.091 135.321 142.808 135.684 143.364 136.174C143.925 136.662 144.305 137.243 144.503 137.917C144.703 138.587 144.7 139.312 144.496 140.09L141.51 139.29C141.594 138.808 141.553 138.414 141.39 138.108C141.231 137.799 140.973 137.596 140.615 137.5C140.335 137.425 140.068 137.441 139.815 137.548C139.562 137.651 139.333 137.851 139.129 138.146C138.926 138.437 138.759 138.828 138.628 139.318C138.497 139.808 138.446 140.231 138.475 140.589C138.505 140.943 138.603 141.23 138.769 141.449C138.936 141.665 139.16 141.81 139.44 141.885C139.677 141.949 139.902 141.951 140.113 141.891C140.326 141.827 140.518 141.703 140.688 141.52C140.863 141.333 141.004 141.088 141.11 140.783L144.096 141.583C143.873 142.369 143.508 143.009 143 143.502C142.494 143.991 141.878 144.309 141.151 144.456C140.428 144.604 139.623 144.559 138.737 144.322ZM148.695 146.99C147.723 146.73 146.943 146.315 146.354 145.744C145.766 145.17 145.381 144.488 145.197 143.697C145.014 142.902 145.045 142.046 145.291 141.128C145.537 140.211 145.937 139.456 146.492 138.863C147.048 138.266 147.723 137.867 148.518 137.668C149.314 137.465 150.198 137.493 151.17 137.754C152.049 137.989 152.766 138.352 153.322 138.843C153.883 139.331 154.263 139.911 154.461 140.585C154.661 141.256 154.659 141.98 154.454 142.758L151.469 141.958C151.552 141.477 151.512 141.083 151.348 140.776C151.189 140.467 150.931 140.264 150.573 140.169C150.293 140.094 150.026 140.11 149.773 140.217C149.52 140.32 149.292 140.519 149.088 140.814C148.885 141.106 148.717 141.496 148.586 141.986C148.455 142.476 148.404 142.9 148.433 143.258C148.463 143.611 148.561 143.898 148.727 144.118C148.895 144.333 149.118 144.479 149.398 144.554C149.635 144.617 149.86 144.619 150.072 144.559C150.285 144.495 150.476 144.372 150.646 144.188C150.821 144.002 150.962 143.756 151.069 143.451L154.054 144.251C153.831 145.037 153.466 145.677 152.959 146.17C152.453 146.66 151.836 146.978 151.109 147.125C150.386 147.273 149.582 147.228 148.695 146.99ZM158.63 149.652C157.674 149.396 156.899 148.993 156.305 148.442C155.716 147.888 155.327 147.217 155.138 146.429C154.954 145.638 154.991 144.761 155.249 143.797C155.497 142.871 155.901 142.113 156.459 141.521C157.018 140.929 157.689 140.532 158.472 140.329C159.256 140.126 160.11 140.149 161.035 140.397C161.712 140.578 162.296 140.847 162.788 141.204C163.28 141.561 163.666 141.991 163.948 142.496C164.23 142.997 164.4 143.559 164.458 144.183C164.516 144.807 164.45 145.474 164.259 146.186L164.059 146.932L156.059 144.788L156.534 143.016L161.572 144.366C161.637 144.108 161.631 143.865 161.555 143.636C161.483 143.405 161.356 143.206 161.171 143.039C160.991 142.871 160.767 142.75 160.499 142.678C160.238 142.608 159.984 142.601 159.736 142.655C159.49 142.706 159.274 142.81 159.09 142.969C158.909 143.129 158.78 143.339 158.703 143.597L158.19 145.51C158.113 145.797 158.105 146.07 158.165 146.328C158.225 146.585 158.351 146.809 158.542 146.997C158.733 147.186 158.988 147.323 159.306 147.409C159.528 147.468 159.739 147.491 159.938 147.478C160.141 147.466 160.325 147.419 160.488 147.338C160.652 147.253 160.788 147.135 160.895 146.984L163.834 147.772C163.566 148.367 163.182 148.843 162.682 149.201C162.183 149.554 161.589 149.774 160.899 149.86C160.215 149.944 159.458 149.874 158.63 149.652ZM174.178 147.169L171.216 146.375C171.249 146.188 171.228 146.013 171.15 145.851C171.073 145.689 170.954 145.548 170.794 145.431C170.639 145.31 170.454 145.221 170.241 145.163C169.965 145.09 169.714 145.077 169.489 145.124C169.263 145.172 169.128 145.29 169.081 145.478C169.042 145.609 169.066 145.747 169.152 145.891C169.242 146.036 169.45 146.185 169.776 146.339L171.508 147.153C172.38 147.566 172.987 148.031 173.328 148.547C173.674 149.06 173.76 149.648 173.587 150.31C173.412 150.946 173.073 151.449 172.57 151.819C172.072 152.185 171.464 152.41 170.746 152.492C170.033 152.572 169.262 152.501 168.434 152.279C167.066 151.913 166.07 151.346 165.446 150.579C164.826 149.813 164.595 148.959 164.751 148.017L167.947 148.874C167.913 149.169 167.994 149.426 168.19 149.645C168.39 149.861 168.673 150.018 169.039 150.116C169.334 150.195 169.591 150.21 169.808 150.16C170.03 150.111 170.167 149.994 170.221 149.808C170.263 149.636 170.214 149.477 170.074 149.331C169.938 149.186 169.703 149.036 169.37 148.88L167.859 148.175C166.988 147.771 166.385 147.284 166.05 146.716C165.715 146.147 165.644 145.511 165.836 144.808C165.999 144.185 166.303 143.702 166.749 143.359C167.2 143.013 167.765 142.811 168.443 142.751C169.127 142.688 169.894 142.771 170.746 142.999C172.04 143.346 172.989 143.887 173.591 144.624C174.198 145.361 174.394 146.21 174.178 147.169ZM183.832 149.755L180.87 148.962C180.903 148.775 180.881 148.6 180.804 148.438C180.726 148.275 180.608 148.135 180.448 148.017C180.293 147.896 180.108 147.807 179.894 147.75C179.618 147.676 179.368 147.663 179.142 147.711C178.917 147.759 178.781 147.877 178.735 148.065C178.696 148.196 178.719 148.333 178.806 148.477C178.896 148.622 179.104 148.772 179.429 148.926L181.161 149.74C182.034 150.153 182.641 150.617 182.981 151.134C183.327 151.647 183.413 152.235 183.24 152.897C183.065 153.533 182.727 154.036 182.223 154.405C181.725 154.772 181.117 154.996 180.399 155.079C179.686 155.159 178.916 155.088 178.088 154.866C176.719 154.499 175.723 153.932 175.1 153.165C174.48 152.399 174.248 151.546 174.405 150.604L177.6 151.46C177.567 151.756 177.648 152.013 177.843 152.232C178.044 152.448 178.327 152.605 178.692 152.703C178.988 152.782 179.244 152.797 179.462 152.747C179.683 152.698 179.821 152.58 179.875 152.395C179.917 152.223 179.868 152.064 179.727 151.918C179.591 151.773 179.357 151.623 179.023 151.467L177.512 150.762C176.641 150.358 176.039 149.871 175.703 149.302C175.368 148.733 175.297 148.097 175.49 147.395C175.652 146.772 175.957 146.289 176.403 145.946C176.854 145.6 177.419 145.397 178.097 145.337C178.781 145.275 179.548 145.357 180.399 145.586C181.694 145.932 182.642 146.474 183.245 147.211C183.852 147.948 184.047 148.796 183.832 149.755ZM73.1334 138.71L72.5084 141.042L66.6072 139.461L67.2322 137.128L73.1334 138.71ZM68.9501 135.289L72.169 136.151L69.9659 144.373C69.9325 144.498 69.9258 144.608 69.9457 144.705C69.9665 144.798 70.016 144.878 70.0939 144.945C70.1729 145.008 70.2824 145.058 70.4223 145.095C70.5195 145.122 70.6354 145.14 70.7699 145.151C70.9083 145.163 71.0107 145.17 71.0771 145.171L70.9374 147.558C70.7821 147.563 70.562 147.56 70.2771 147.55C69.996 147.542 69.6702 147.498 69.2996 147.42C68.5506 147.261 67.9508 147.019 67.5004 146.694C67.051 146.365 66.7556 145.959 66.6144 145.475C66.4732 144.991 66.4903 144.438 66.6658 143.814L68.9501 135.289ZM72.0469 148.018L74.4469 139.061L77.6657 139.924L75.2658 148.881L72.0469 148.018ZM76.3063 138.56C75.8709 138.443 75.5363 138.199 75.3023 137.828C75.0684 137.457 75.0056 137.07 75.114 136.665C75.2223 136.261 75.4705 135.957 75.8586 135.752C76.2467 135.548 76.6584 135.504 77.0938 135.621C77.5331 135.738 77.8678 135.982 78.0978 136.352C78.3317 136.723 78.3945 137.111 78.2862 137.515C78.1778 137.92 77.9296 138.224 77.5415 138.428C77.1573 138.634 76.7456 138.677 76.3063 138.56ZM83.3246 138.24L80.1247 150.183L76.9058 149.32L80.1058 137.378L83.3246 138.24ZM88.1835 139.542L84.9835 151.485L81.7647 150.622L84.9646 138.68L88.1835 139.542ZM97.6362 145.275L97.0113 147.608L91.1101 146.026L91.735 143.694L97.6362 145.275ZM93.453 141.854L96.6718 142.717L94.4687 150.939C94.4354 151.063 94.4286 151.174 94.4485 151.271C94.4694 151.364 94.5188 151.444 94.5967 151.51C94.6757 151.573 94.7852 151.623 94.9252 151.661C95.0223 151.687 95.1382 151.706 95.2727 151.717C95.4112 151.729 95.5136 151.735 95.5799 151.736L95.4402 154.124C95.2849 154.128 95.0648 154.125 94.7799 154.116C94.4989 154.107 94.173 154.064 93.8024 153.985C93.0534 153.826 92.4536 153.584 92.0032 153.259C91.5538 152.93 91.2585 152.524 91.1172 152.041C90.976 151.557 90.9931 151.003 91.1686 150.379L93.453 141.854ZM98.9497 145.627L102.169 146.489L99.6874 155.749C99.4769 156.535 99.1471 157.105 98.698 157.459C98.2527 157.815 97.7101 158.005 97.0702 158.029C96.4304 158.054 95.7159 157.96 94.9267 157.749C94.8101 157.718 94.7037 157.687 94.6076 157.657C94.5075 157.626 94.3983 157.591 94.2799 157.55L94.9174 155.171C94.993 155.2 95.0595 155.224 95.1168 155.244C95.1701 155.262 95.226 155.279 95.2843 155.295C95.6692 155.398 95.9477 155.408 96.12 155.325C96.295 155.247 96.4175 155.077 96.4873 154.817L98.9497 145.627ZM100.809 145.125C100.374 145.009 100.039 144.765 99.8052 144.394C99.5713 144.023 99.5085 143.635 99.6168 143.231C99.7251 142.826 99.9733 142.522 100.361 142.318C100.749 142.113 101.161 142.07 101.597 142.186C102.036 142.304 102.371 142.548 102.601 142.918C102.835 143.289 102.897 143.676 102.789 144.081C102.681 144.485 102.432 144.789 102.044 144.994C101.66 145.199 101.248 145.243 100.809 145.125ZM103.867 156.694C103.295 156.541 102.815 156.313 102.426 156.008C102.041 155.701 101.776 155.322 101.631 154.87C101.485 154.419 101.492 153.896 101.651 153.301C101.783 152.811 101.978 152.415 102.238 152.114C102.499 151.809 102.809 151.586 103.167 151.445C103.526 151.303 103.919 151.227 104.347 151.217C104.779 151.208 105.231 151.247 105.703 151.336C106.214 151.432 106.629 151.493 106.947 151.52C107.27 151.544 107.513 151.523 107.676 151.459C107.84 151.39 107.945 151.271 107.991 151.1L107.997 151.076C108.06 150.843 108.018 150.64 107.873 150.468C107.727 150.296 107.515 150.172 107.235 150.097C106.928 150.015 106.659 150.015 106.428 150.099C106.202 150.181 106.032 150.354 105.92 150.62L102.957 149.826C103.142 149.292 103.449 148.837 103.879 148.46C104.314 148.081 104.866 147.833 105.535 147.717C106.205 147.596 106.985 147.655 107.875 147.894C108.516 148.065 109.072 148.295 109.54 148.583C110.01 148.868 110.388 149.192 110.673 149.556C110.96 149.916 111.149 150.3 111.24 150.708C111.335 151.112 111.328 151.523 111.216 151.939L109.572 158.073L106.563 157.267L106.901 156.007L106.831 155.989C106.563 156.275 106.272 156.487 105.961 156.624C105.653 156.762 105.323 156.835 104.972 156.84C104.624 156.847 104.256 156.799 103.867 156.694ZM105.46 154.946C105.705 155.012 105.948 155.023 106.189 154.979C106.434 154.936 106.65 154.838 106.837 154.684C107.024 154.53 107.154 154.317 107.227 154.045L107.427 153.298C107.332 153.31 107.232 153.319 107.126 153.324C107.025 153.33 106.916 153.332 106.8 153.33C106.687 153.329 106.568 153.324 106.441 153.315C106.318 153.307 106.19 153.296 106.056 153.281C105.797 153.253 105.576 153.263 105.393 153.309C105.214 153.353 105.069 153.429 104.957 153.536C104.85 153.641 104.775 153.771 104.734 153.927C104.667 154.175 104.703 154.389 104.843 154.568C104.982 154.747 105.188 154.873 105.46 154.946ZM106.376 146.492C105.979 146.386 105.678 146.163 105.473 145.825C105.268 145.487 105.215 145.131 105.315 144.758C105.415 144.384 105.639 144.103 105.986 143.912C106.332 143.722 106.704 143.68 107.101 143.786C107.486 143.889 107.779 144.109 107.98 144.447C108.185 144.785 108.238 145.141 108.138 145.514C108.038 145.887 107.814 146.169 107.467 146.359C107.124 146.551 106.761 146.595 106.376 146.492ZM110.084 147.486C109.688 147.379 109.387 147.157 109.182 146.819C108.977 146.48 108.924 146.125 109.024 145.751C109.124 145.378 109.347 145.096 109.694 144.906C110.041 144.716 110.413 144.674 110.809 144.78C111.194 144.883 111.487 145.103 111.689 145.44C111.894 145.779 111.946 146.134 111.846 146.508C111.746 146.881 111.523 147.163 111.176 147.353C110.833 147.544 110.469 147.589 110.084 147.486ZM115.679 154.31L114.329 159.348L111.11 158.485L113.51 149.528L116.566 150.347L116.11 152.05L116.203 152.075C116.549 151.559 117.011 151.206 117.587 151.015C118.167 150.824 118.786 150.817 119.443 150.993C120.076 151.163 120.587 151.456 120.976 151.873C121.369 152.286 121.626 152.78 121.748 153.354C121.873 153.93 121.846 154.541 121.668 155.189L120.137 160.904L116.918 160.041L118.268 155.003C118.391 154.561 118.371 154.183 118.21 153.869C118.052 153.556 117.771 153.345 117.367 153.237C117.102 153.166 116.855 153.162 116.626 153.226C116.401 153.286 116.208 153.41 116.046 153.595C115.884 153.777 115.762 154.015 115.679 154.31ZM131.532 157.482L128.57 156.689C128.603 156.502 128.581 156.327 128.504 156.165C128.426 156.002 128.308 155.862 128.148 155.744C127.992 155.624 127.808 155.534 127.594 155.477C127.318 155.403 127.068 155.39 126.842 155.438C126.617 155.486 126.481 155.604 126.435 155.792C126.396 155.923 126.419 156.06 126.506 156.204C126.596 156.349 126.804 156.499 127.129 156.653L128.861 157.467C129.734 157.88 130.34 158.344 130.681 158.861C131.027 159.374 131.113 159.962 130.94 160.624C130.765 161.26 130.426 161.763 129.923 162.132C129.425 162.499 128.817 162.724 128.099 162.806C127.386 162.886 126.616 162.815 125.788 162.593C124.419 162.226 123.423 161.659 122.8 160.892C122.18 160.126 121.948 159.273 122.105 158.331L125.3 159.187C125.267 159.483 125.348 159.74 125.543 159.959C125.744 160.175 126.027 160.332 126.392 160.43C126.688 160.509 126.944 160.524 127.162 160.474C127.383 160.425 127.521 160.307 127.575 160.122C127.617 159.95 127.568 159.791 127.427 159.645C127.291 159.5 127.057 159.35 126.723 159.194L125.212 158.489C124.341 158.085 123.738 157.598 123.403 157.029C123.068 156.46 122.997 155.825 123.189 155.122C123.352 154.499 123.657 154.016 124.103 153.673C124.554 153.327 125.118 153.124 125.797 153.064C126.48 153.002 127.248 153.084 128.099 153.313C129.394 153.659 130.342 154.201 130.945 154.938C131.552 155.675 131.747 156.523 131.532 157.482ZM139.121 156.391L138.496 158.723L132.595 157.142L133.22 154.81L139.121 156.391ZM134.938 152.97L138.157 153.832L135.954 162.055C135.92 162.179 135.913 162.29 135.933 162.387C135.954 162.48 136.004 162.56 136.082 162.626C136.161 162.689 136.27 162.739 136.41 162.777C136.507 162.803 136.623 162.821 136.758 162.832C136.896 162.845 136.998 162.851 137.065 162.852L136.925 165.24C136.77 165.244 136.55 165.241 136.265 165.232C135.984 165.223 135.658 165.179 135.287 165.101C134.538 164.942 133.938 164.7 133.488 164.375C133.039 164.046 132.743 163.64 132.602 163.156C132.461 162.673 132.478 162.119 132.653 161.495L134.938 152.97ZM142.186 166.987C141.23 166.731 140.455 166.327 139.861 165.776C139.272 165.223 138.883 164.552 138.694 163.764C138.51 162.973 138.547 162.095 138.806 161.131C139.053 160.206 139.457 159.447 140.015 158.855C140.574 158.263 141.245 157.866 142.028 157.664C142.812 157.461 143.666 157.484 144.591 157.732C145.268 157.913 145.852 158.182 146.344 158.539C146.836 158.895 147.222 159.326 147.504 159.831C147.786 160.331 147.957 160.894 148.014 161.518C148.072 162.141 148.006 162.809 147.815 163.52L147.615 164.267L139.615 162.123L140.09 160.35L145.128 161.7C145.193 161.443 145.187 161.2 145.111 160.971C145.04 160.739 144.912 160.54 144.727 160.374C144.547 160.205 144.323 160.085 144.055 160.013C143.795 159.943 143.54 159.935 143.293 159.99C143.046 160.04 142.83 160.145 142.646 160.304C142.466 160.464 142.337 160.673 142.259 160.932L141.746 162.844C141.669 163.132 141.661 163.405 141.721 163.662C141.781 163.92 141.907 164.143 142.098 164.332C142.289 164.521 142.544 164.658 142.863 164.743C143.084 164.803 143.295 164.826 143.494 164.812C143.697 164.8 143.881 164.754 144.044 164.672C144.209 164.587 144.344 164.469 144.451 164.319L147.39 165.106C147.122 165.701 146.739 166.178 146.239 166.535C145.74 166.889 145.145 167.109 144.456 167.195C143.771 167.278 143.014 167.209 142.186 166.987ZM152.498 164.175L151.148 169.213L147.929 168.351L150.329 159.394L153.384 160.213L152.928 161.915L153.021 161.94C153.368 161.425 153.829 161.071 154.405 160.88C154.986 160.69 155.604 160.682 156.261 160.859C156.895 161.028 157.406 161.321 157.794 161.738C158.187 162.152 158.445 162.646 158.566 163.22C158.691 163.795 158.665 164.407 158.487 165.055L156.955 170.769L153.737 169.907L155.087 164.869C155.209 164.427 155.19 164.048 155.028 163.734C154.87 163.421 154.589 163.211 154.185 163.102C153.921 163.031 153.674 163.028 153.444 163.091C153.22 163.152 153.026 163.275 152.864 163.461C152.703 163.642 152.581 163.881 152.498 164.175ZM160.244 171.851C159.793 171.73 159.448 171.469 159.21 171.067C158.977 170.663 158.923 170.234 159.049 169.78C159.163 169.336 159.422 168.999 159.826 168.77C160.233 168.541 160.662 168.488 161.113 168.608C161.54 168.723 161.875 168.981 162.117 169.384C162.363 169.787 162.429 170.211 162.314 170.655C162.229 170.957 162.075 171.212 161.853 171.419C161.636 171.624 161.385 171.767 161.101 171.849C160.817 171.927 160.532 171.928 160.244 171.851ZM59.7718 168.54L62.9717 156.598L66.2139 157.467L64.9639 162.132L69.2557 163.282L70.5057 158.617L73.7478 159.486L70.5479 171.428L67.3057 170.559L68.5557 165.894L64.2639 164.744L63.0139 169.409L59.7718 168.54ZM76.382 173.166C75.4257 172.91 74.6505 172.506 74.0564 171.956C73.4673 171.402 73.0783 170.731 72.8895 169.943C72.7056 169.152 72.7428 168.274 73.0012 167.31C73.2491 166.385 73.6523 165.627 74.2109 165.035C74.7696 164.443 75.4406 164.045 76.224 163.843C77.0074 163.64 77.8618 163.663 78.787 163.911C79.4634 164.092 80.0476 164.361 80.5395 164.718C81.0313 165.075 81.418 165.505 81.6995 166.01C81.982 166.511 82.1521 167.073 82.21 167.697C82.2678 168.32 82.2014 168.988 82.0108 169.699L81.8108 170.446L73.8104 168.302L74.2854 166.529L79.3236 167.879C79.3884 167.622 79.3827 167.379 79.3065 167.15C79.2353 166.918 79.1073 166.719 78.9227 166.553C78.7429 166.384 78.519 166.264 78.2507 166.192C77.9903 166.122 77.7361 166.115 77.4882 166.169C77.2413 166.219 77.0257 166.324 76.8415 166.483C76.6611 166.643 76.5322 166.852 76.4546 167.111L75.9421 169.023C75.865 169.311 75.8565 169.584 75.9166 169.842C75.9767 170.099 76.1023 170.323 76.2934 170.511C76.4845 170.7 76.7395 170.837 77.0582 170.922C77.2798 170.982 77.4903 171.005 77.6897 170.992C77.8929 170.979 78.0763 170.933 78.2397 170.851C78.4042 170.766 78.5399 170.649 78.6469 170.498L81.5858 171.286C81.3181 171.88 80.9342 172.357 80.4342 172.714C79.9353 173.068 79.3409 173.288 78.6512 173.374C77.9665 173.457 77.21 173.388 76.382 173.166ZM88.5431 163.45L85.3432 175.392L82.1243 174.53L85.3243 162.587L88.5431 163.45ZM94.7246 168.306L94.0996 170.639L88.1984 169.057L88.8234 166.725L94.7246 168.306ZM90.5413 164.885L93.7601 165.748L91.557 173.97C91.5237 174.094 91.5169 174.205 91.5368 174.302C91.5577 174.395 91.6071 174.475 91.6851 174.542C91.764 174.604 91.8735 174.655 92.0135 174.692C92.1107 174.718 92.2265 174.737 92.3611 174.748C92.4995 174.76 92.6019 174.766 92.6682 174.768L92.5285 177.155C92.3732 177.159 92.1531 177.157 91.8682 177.147C91.5872 177.138 91.2614 177.095 90.8907 177.016C90.1417 176.857 89.542 176.615 89.0915 176.29C88.6421 175.962 88.3468 175.555 88.2056 175.072C88.0643 174.588 88.0815 174.034 88.2569 173.411L90.5413 164.885ZM100.766 183.772C99.7628 183.503 98.941 183.129 98.3009 182.65C97.664 182.177 97.2148 181.637 96.9533 181.032C96.695 180.432 96.6281 179.804 96.7526 179.148L100.22 180.077C100.198 180.299 100.238 180.494 100.343 180.662C100.447 180.829 100.6 180.97 100.802 181.085C101.007 181.205 101.247 181.302 101.52 181.375C101.985 181.5 102.4 181.49 102.765 181.346C103.134 181.202 103.397 180.835 103.556 180.244L104.01 178.55L103.906 178.522C103.684 178.826 103.407 179.061 103.074 179.228C102.741 179.391 102.369 179.484 101.958 179.509C101.547 179.529 101.116 179.479 100.664 179.358C99.9514 179.167 99.3396 178.826 98.8285 178.335C98.3217 177.845 97.9841 177.194 97.8155 176.38C97.6514 175.568 97.7241 174.584 98.0338 173.428C98.3574 172.22 98.8074 171.288 99.3836 170.633C99.9642 169.978 100.599 169.554 101.289 169.362C101.983 169.171 102.66 169.163 103.32 169.34C103.816 169.473 104.227 169.676 104.554 169.95C104.882 170.22 105.134 170.532 105.309 170.886C105.485 171.236 105.593 171.598 105.633 171.972L105.711 171.993L106.179 170.246L109.776 171.21L107.101 181.194C106.874 182.042 106.462 182.702 105.865 183.175C105.271 183.654 104.537 183.944 103.662 184.045C102.787 184.146 101.822 184.055 100.766 183.772ZM102.678 177.159C103.008 177.248 103.315 177.232 103.599 177.113C103.888 176.99 104.141 176.774 104.359 176.464C104.583 176.151 104.76 175.752 104.89 175.265C105.023 174.77 105.071 174.329 105.035 173.942C105.004 173.552 104.895 173.231 104.706 172.981C104.522 172.727 104.266 172.555 103.935 172.467C103.605 172.378 103.297 172.398 103.011 172.527C102.731 172.652 102.48 172.876 102.259 173.198C102.043 173.517 101.868 173.925 101.736 174.42C101.603 174.915 101.551 175.353 101.579 175.733C101.613 176.11 101.721 176.421 101.902 176.665C102.089 176.906 102.348 177.071 102.678 177.159ZM108.924 181.711L111.606 171.7L115.099 172.636L114.59 174.539L114.694 174.567C115.065 173.912 115.492 173.475 115.974 173.255C116.462 173.036 116.972 172.998 117.507 173.142C117.663 173.183 117.814 173.238 117.959 173.305C118.109 173.368 118.251 173.441 118.382 173.523L117.56 176.593C117.398 176.484 117.191 176.38 116.938 176.279C116.686 176.179 116.466 176.104 116.279 176.054C115.927 175.959 115.589 175.955 115.263 176.04C114.943 176.122 114.664 176.285 114.427 176.528C114.19 176.768 114.021 177.079 113.918 177.461L112.521 182.675L108.924 181.711ZM119.163 184.622C118.524 184.451 117.987 184.195 117.552 183.855C117.123 183.512 116.827 183.088 116.664 182.583C116.501 182.079 116.509 181.494 116.687 180.829C116.833 180.282 117.052 179.84 117.342 179.503C117.634 179.162 117.98 178.912 118.381 178.754C118.782 178.596 119.222 178.512 119.7 178.5C120.182 178.49 120.687 178.534 121.215 178.634C121.787 178.74 122.25 178.809 122.606 178.839C122.966 178.865 123.238 178.843 123.42 178.77C123.604 178.694 123.721 178.56 123.772 178.369L123.779 178.343C123.849 178.082 123.803 177.855 123.64 177.663C123.477 177.47 123.24 177.332 122.927 177.248C122.584 177.156 122.283 177.157 122.025 177.251C121.773 177.342 121.583 177.536 121.457 177.832L118.146 176.945C118.353 176.349 118.696 175.84 119.177 175.419C119.663 174.995 120.28 174.718 121.027 174.588C121.776 174.453 122.648 174.519 123.643 174.786C124.36 174.978 124.98 175.235 125.504 175.557C126.029 175.874 126.451 176.237 126.77 176.644C127.091 177.046 127.302 177.475 127.403 177.931C127.51 178.383 127.501 178.842 127.377 179.307L125.54 186.163L122.177 185.262L122.554 183.854L122.476 183.833C122.176 184.153 121.852 184.39 121.503 184.543C121.159 184.698 120.79 184.779 120.398 184.785C120.009 184.793 119.597 184.738 119.163 184.622ZM120.944 182.668C121.217 182.742 121.489 182.754 121.758 182.705C122.032 182.657 122.273 182.547 122.482 182.375C122.691 182.203 122.837 181.965 122.918 181.661L123.142 180.826C123.036 180.84 122.924 180.849 122.806 180.855C122.692 180.862 122.57 180.864 122.441 180.862C122.315 180.861 122.182 180.855 122.04 180.845C121.903 180.837 121.759 180.824 121.61 180.807C121.32 180.776 121.073 180.787 120.868 180.839C120.669 180.888 120.506 180.972 120.381 181.093C120.261 181.209 120.178 181.355 120.132 181.529C120.057 181.807 120.098 182.046 120.254 182.246C120.41 182.446 120.64 182.587 120.944 182.668ZM135.911 178.213L135.212 180.819L128.617 179.052L129.315 176.445L135.911 178.213ZM131.235 174.389L134.833 175.353L132.37 184.543C132.333 184.682 132.326 184.805 132.348 184.914C132.371 185.018 132.426 185.107 132.514 185.182C132.602 185.252 132.724 185.308 132.881 185.35C132.989 185.379 133.119 185.4 133.269 185.412C133.424 185.426 133.538 185.433 133.612 185.434L133.456 188.103C133.283 188.107 133.037 188.104 132.718 188.093C132.404 188.084 132.04 188.035 131.626 187.947C130.789 187.77 130.118 187.499 129.615 187.136C129.113 186.769 128.783 186.315 128.625 185.774C128.467 185.234 128.486 184.615 128.682 183.917L131.235 174.389ZM134.696 188.616L137.379 178.606L140.976 179.57L138.294 189.58L134.696 188.616ZM139.457 178.045C138.97 177.915 138.596 177.642 138.335 177.228C138.073 176.813 138.003 176.38 138.124 175.928C138.245 175.476 138.523 175.136 138.956 174.907C139.39 174.679 139.85 174.63 140.337 174.76C140.828 174.892 141.202 175.165 141.459 175.578C141.72 175.993 141.791 176.426 141.67 176.878C141.549 177.33 141.271 177.67 140.837 177.898C140.408 178.128 139.948 178.177 139.457 178.045ZM151.086 185.771L147.775 184.884C147.813 184.675 147.788 184.48 147.702 184.299C147.615 184.117 147.483 183.961 147.304 183.829C147.13 183.694 146.924 183.595 146.685 183.53C146.377 183.448 146.097 183.433 145.845 183.487C145.593 183.54 145.441 183.672 145.39 183.882C145.346 184.028 145.372 184.182 145.469 184.343C145.57 184.505 145.802 184.672 146.166 184.844L148.101 185.754C149.077 186.216 149.755 186.735 150.136 187.312C150.522 187.886 150.618 188.543 150.425 189.282C150.23 189.994 149.851 190.556 149.289 190.969C148.732 191.378 148.052 191.629 147.25 191.722C146.453 191.811 145.592 191.731 144.666 191.483C143.137 191.074 142.024 190.44 141.327 189.583C140.634 188.727 140.375 187.772 140.55 186.72L144.121 187.677C144.084 188.007 144.175 188.295 144.393 188.539C144.617 188.781 144.933 188.957 145.342 189.066C145.672 189.154 145.959 189.171 146.202 189.115C146.449 189.06 146.603 188.929 146.663 188.722C146.71 188.529 146.656 188.352 146.499 188.189C146.347 188.027 146.084 187.859 145.712 187.684L144.023 186.897C143.05 186.445 142.376 185.901 142.002 185.265C141.627 184.629 141.547 183.919 141.762 183.133C141.944 182.437 142.285 181.897 142.783 181.514C143.287 181.127 143.918 180.901 144.677 180.834C145.441 180.764 146.298 180.856 147.25 181.111C148.697 181.499 149.757 182.104 150.43 182.927C151.108 183.752 151.327 184.7 151.086 185.771ZM158.664 180.733L155.866 189.818L152.894 189.022L155.014 179.755L158.664 180.733ZM153.207 193.8C152.703 193.665 152.317 193.373 152.051 192.924C151.79 192.473 151.73 191.993 151.871 191.486C151.999 190.989 152.289 190.613 152.739 190.357C153.194 190.101 153.673 190.041 154.177 190.176C154.655 190.304 155.03 190.593 155.3 191.043C155.575 191.494 155.649 191.967 155.52 192.464C155.425 192.802 155.253 193.086 155.005 193.318C154.762 193.546 154.482 193.706 154.164 193.798C153.847 193.885 153.528 193.886 153.207 193.8Z" fill="white"/>
</g>
<defs>
<filter id="filter0_d_2075_5850" x="15.6836" y="19.3616" width="214.242" height="218.225" filterUnits="userSpaceOnUse" color-interpolation-filters="sRGB">
<feFlood flood-opacity="0" result="BackgroundImageFix"/>
<feColorMatrix in="SourceAlpha" type="matrix" values="0 0 0 0 0 0 0 0 0 0 0 0 0 0 0 0 0 0 127 0" result="hardAlpha"/>
<feOffset dy="4"/>
<feGaussianBlur stdDeviation="2"/>
<feComposite in2="hardAlpha" operator="out"/>
<feColorMatrix type="matrix" values="0 0 0 0 0 0 0 0 0 0 0 0 0 0 0 0 0 0 0.25 0"/>
<feBlend mode="normal" in2="BackgroundImageFix" result="effect1_dropShadow_2075_5850"/>
<feBlend mode="normal" in="SourceGraphic" in2="effect1_dropShadow_2075_5850" result="shape"/>
</filter>
<filter id="filter1_d_2075_5850" x="63.7812" y="52.8955" width="135.434" height="85.0486" filterUnits="userSpaceOnUse" color-interpolation-filters="sRGB">
<feFlood flood-opacity="0" result="BackgroundImageFix"/>
<feColorMatrix in="SourceAlpha" type="matrix" values="0 0 0 0 0 0 0 0 0 0 0 0 0 0 0 0 0 0 127 0" result="hardAlpha"/>
<feOffset dy="4"/>
<feGaussianBlur stdDeviation="2"/>
<feComposite in2="hardAlpha" operator="out"/>
<feColorMatrix type="matrix" values="0 0 0 0 0 0 0 0 0 0 0 0 0 0 0 0 0 0 0.25 0"/>
<feBlend mode="normal" in2="BackgroundImageFix" result="effect1_dropShadow_2075_5850"/>
<feBlend mode="normal" in="SourceGraphic" in2="effect1_dropShadow_2075_5850" result="shape"/>
</filter>
<filter id="filter2_d_2075_5850" x="36.4922" y="107.536" width="153.605" height="102.786" filterUnits="userSpaceOnUse" color-interpolation-filters="sRGB">
<feFlood flood-opacity="0" result="BackgroundImageFix"/>
<feColorMatrix in="SourceAlpha" type="matrix" values="0 0 0 0 0 0 0 0 0 0 0 0 0 0 0 0 0 0 127 0" result="hardAlpha"/>
<feOffset dy="4"/>
<feGaussianBlur stdDeviation="2"/>
<feComposite in2="hardAlpha" operator="out"/>
<feColorMatrix type="matrix" values="0 0 0 0 0 0 0 0 0 0 0 0 0 0 0 0 0 0 0.25 0"/>
<feBlend mode="normal" in2="BackgroundImageFix" result="effect1_dropShadow_2075_5850"/>
<feBlend mode="normal" in="SourceGraphic" in2="effect1_dropShadow_2075_5850" result="shape"/>
</filter>
</defs>
</svg>
